<svg id="Layer_1" data-name="Layer 1" xmlns="http://www.w3.org/2000/svg" viewBox="0 0 217.33 291.01"><title>location-dot</title><path d="M267.32,115.44C267,133.49,259.59,155,247.67,174c-23,36.75-47.42,72.65-72.08,108.33-11.12,16.11-22.22,15.65-34.18.15-30.09-39-58.47-79.12-79.75-123.8C30.49,93.25,66.55,33.88,113.4,13,185.34-19.19,266.41,32,267.32,115.44ZM158.62,276.18c33.64-44,66.65-86.82,86.17-138,3.18-8.36,5.4-17.75,5.27-26.62-.87-58.32-53.18-100-110.67-88.5C86,33.71,52.73,92.63,73.75,142,94.58,190.85,125.18,233.29,158.62,276.18Z" transform="translate(-49.99 -3.25)"/><path d="M203.44,112.31c0,24.65-20.72,45.57-45,45.38-24.57-.19-44.88-20.92-44.75-45.65.13-24.23,20.23-44.48,44.57-44.92C182.4,66.7,203.41,87.69,203.44,112.31Zm-45.3,27.63a27.55,27.55,0,1,0-27.31-28.18C130.29,126.71,143,139.77,158.14,139.94Z" transform="translate(-49.99 -3.25)"/></svg>